<?xml version="1.0" encoding="UTF-8" standalone="yes"?>
<svg version="1.1" id="Layer_1" xmlns:x="&amp;ns_extend;" xmlns:i="&amp;ns_ai;" xmlns:graph="&amp;ns_graphs;" xmlns="http://www.w3.org/2000/svg" xmlns:xlink="http://www.w3.org/1999/xlink" x="0px" y="0px" viewBox="0 0 315 315" style="enable-background:new 0 0 315 315;" xml:space="preserve">
      <style type="text/css">.st0{fill:url(#SVGID_1_);}</style>
    <metadata>
              <sfw>
                      <slices/>
            <sliceSourceBounds bottomLeftOrigin="true" height="315" width="315" x="0" y="0"/>
                  </sfw>
          </metadata>
    <g id="color_index_g">
              <linearGradient id="SVGID_1_" gradientUnits="userSpaceOnUse" x1="265.8702" y1="270.0181" x2="47.3562" y2="43.1402" gradientTransform="matrix(1 0 0 -1 0 315)">
                      <stop offset="0" style="stop-color:rgba(78, 153, 252, 1)"/>
            <stop offset="1" style="stop-color:rgba(16, 30, 252, 1)"/>
                  </linearGradient>
        <path class="st0" d="M157.49,0C70.52,0,0,70.52,0,157.51C0,244.48,70.52,315,157.49,315C244.48,315,315,244.48,315,157.51&#x9;&#x9;C315,70.52,244.48,0,157.49,0z M89.78,242.58c-9.62,0-17.43-7.81-17.43-17.44c0-9.62,7.81-17.43,17.43-17.43&#x9;&#x9;c9.63,0,17.44,7.81,17.44,17.43C107.22,234.77,99.41,242.58,89.78,242.58z M149.11,224.43l-0.14,0.02&#x9;&#x9;c-6.07,0.75-11.75-2.83-13.96-8.53c-3.11-7.98-7.87-15.28-14.12-21.51c-6.4-6.41-13.89-11.25-22.12-14.35&#x9;&#x9;c-5.8-2.19-9.46-7.92-8.7-14.08c1.06-8.48,9.75-13.74,17.76-10.76c11.79,4.4,22.54,11.32,31.74,20.51&#x9;&#x9;c8.97,8.97,15.79,19.47,20.2,30.96C162.84,214.65,157.58,223.38,149.11,224.43z M200.78,218.02l-0.15,0.01&#x9;&#x9;c-6.43,0.8-12.55-3.21-14.25-9.47c-5.15-18.94-15.12-36.1-29.33-50.31c-14.38-14.38-31.78-24.41-50.97-29.51&#x9;&#x9;c-6.33-1.68-10.4-7.85-9.6-14.35v-0.01c1-8.01,8.85-13.2,16.65-11.11c23.57,6.28,44.92,18.63,62.61,36.3&#x9;&#x9;c17.46,17.46,29.74,38.57,36.08,61.82C213.93,209.17,208.76,217.03,200.78,218.02z M251.85,211.69l-0.19,0.02&#x9;&#x9;c-6.73,0.84-12.93-3.6-14.44-10.19c-6.87-30.09-21.91-57.29-44.03-79.41c-22.3-22.3-49.73-37.39-80.08-44.19&#x9;&#x9;c-6.68-1.48-11.15-7.74-10.32-14.52l0.01-0.05c0.97-7.8,8.47-12.99,16.12-11.25c10.1,2.29,20,5.4,29.64,9.3&#x9;&#x9;c23.74,9.62,45.05,23.77,63.31,42.03c18.26,18.27,32.4,39.57,42.02,63.3c3.82,9.39,6.86,19.06,9.13,28.88&#x9;&#x9;C264.8,203.23,259.62,210.72,251.85,211.69z"/>
          </g>
  </svg>